<?xml version="1.0" encoding="UTF-8" standalone="no"?>
<svg width="360px" height="56px" viewBox="0 0 360 56" version="1.1" xmlns="http://www.w3.org/2000/svg" xmlns:xlink="http://www.w3.org/1999/xlink" xmlns:sketch="http://www.bohemiancoding.com/sketch/ns">
    <!-- Generator: Sketch Beta 3.1.1 (8761) - http://www.bohemiancoding.com/sketch -->
    <title>RefactorCop</title>
    <desc>Created with Sketch Beta.</desc>
    <defs></defs>
    <g id="Page-1" stroke="none" stroke-width="1" fill="none" fill-rule="evenodd" sketch:type="MSPage">
        <g id="RefactorCop" sketch:type="MSLayerGroup" transform="translate(1.000000, 0.000000)">
            <path d="M10.24,7.696 L16.864,7.696 L21.256,12.088 L21.256,25.48 L16.792,30.304 L10.24,30.304 L10.24,7.696 Z M10.24,36.856 L15.928,36.856 L24.352,55 L31.552,55 L21.976,34.336 L27.808,28.072 L27.808,9.424 L19.528,1.072 L-0.272,1.072 L-0.272,7.696 L6.424,7.696 L6.424,8.2 L3.688,9.856 L3.688,55 L10.24,55 L10.24,36.856 Z M44.656,25.048 L44.656,7.624 L60.208,7.624 L60.208,1.072 L38.104,1.072 L38.104,55 L61.216,55 L61.216,48.448 L44.656,48.448 L44.656,31.6 L57.688,31.6 L57.688,25.048 L44.656,25.048 Z M74.176,26.344 L74.176,7.768 L89.656,7.768 L89.656,1.288 L67.624,1.288 L67.624,55 L74.176,55 L74.176,32.896 L87.136,32.896 L87.136,26.344 L74.176,26.344 Z M91.6,55 L98.224,55 L100.312,40.96 L111.544,40.96 L113.632,55 L120.256,55 L112.264,1.072 L99.592,1.072 L91.6,55 Z M110.608,34.408 L101.248,34.408 L105.208,7.624 L106.576,7.624 L110.608,34.408 Z M146.392,16.912 L152.944,16.912 L152.944,8.776 L145.096,0.568 L134.872,0.568 L127.024,8.776 L127.024,46.648 L134.8,55.36 L145.096,55.36 L152.944,46.648 L152.944,38.152 L146.392,38.224 L146.392,44.2 L142.216,48.808 L137.68,48.808 L133.576,44.2 L133.576,11.368 L137.608,7.12 L142.288,7.12 L146.392,11.368 L146.392,16.912 Z M167.848,55 L174.4,55 L174.4,6.904 L183.976,6.904 L183.976,1 L158.344,1 L158.344,6.904 L167.848,6.904 L167.848,55 Z M217.24,8.488 L209.104,0.352 L198.808,0.352 L190.672,8.488 L190.672,46.576 L198.736,55.216 L209.104,55.216 L217.24,46.576 L217.24,8.488 Z M206.296,48.736 L201.544,48.736 L197.152,44.056 L197.152,11.152 L201.472,6.832 L206.368,6.832 L210.688,11.152 L210.688,44.056 L206.296,48.736 Z M233.512,7.696 L240.136,7.696 L244.528,12.088 L244.528,25.48 L240.064,30.304 L233.512,30.304 L233.512,7.696 Z M233.512,36.856 L239.2,36.856 L247.624,55 L254.824,55 L245.248,34.336 L251.08,28.072 L251.08,9.424 L242.8,1.072 L226.96,1.072 L226.96,55 L233.512,55 L233.512,36.856 Z" id="Refactor" fill="#3A988C" sketch:type="MSShapeGroup"></path>
            <path d="M280.408,16.912 L286.96,16.912 L286.96,8.776 L279.112,0.568 L268.888,0.568 L261.04,8.776 L261.04,46.648 L268.816,55.36 L279.112,55.36 L286.96,46.648 L286.96,38.152 L280.408,38.224 L280.408,44.2 L276.232,48.808 L271.696,48.808 L267.592,44.2 L267.592,11.368 L271.624,7.12 L276.304,7.12 L280.408,11.368 L280.408,16.912 Z M323.032,8.488 L314.896,0.352 L304.6,0.352 L296.464,8.488 L296.464,46.576 L304.528,55.216 L314.896,55.216 L323.032,46.576 L323.032,8.488 Z M312.088,48.736 L307.336,48.736 L302.944,44.056 L302.944,11.152 L307.264,6.832 L312.16,6.832 L316.48,11.152 L316.48,44.056 L312.088,48.736 Z M349.744,1.072 L332.824,1.072 L332.824,55 L339.376,55 L339.376,37.288 L349.816,37.288 L358.096,28.576 L358.096,9.28 L349.744,1.072 Z M339.376,30.736 L339.376,7.624 L347.08,7.624 L351.472,12.016 L351.472,25.984 L347.008,30.736 L339.376,30.736 Z" id="Cop" fill="#E4796B" sketch:type="MSShapeGroup"></path>
        </g>
    </g>
</svg>