<?xml version="1.0" encoding="UTF-8" standalone="no"?>
<svg width="36px" height="50px" viewBox="0 0 36 50" version="1.1" xmlns="http://www.w3.org/2000/svg" xmlns:xlink="http://www.w3.org/1999/xlink" xmlns:sketch="http://www.bohemiancoding.com/sketch/ns">
    <!-- Generator: Sketch Beta 3.1.1 (8761) - http://www.bohemiancoding.com/sketch -->
    <title>ribbon</title>
    <desc>Created with Sketch Beta.</desc>
    <defs></defs>
    <g id="Page-1" stroke="none" stroke-width="1" fill="none" fill-rule="evenodd" sketch:type="MSPage">
        <g id="ribbon" sketch:type="MSLayerGroup" transform="translate(1.000000, 0.000000)">
            <path d="M31.427,13.224 L32.5435,9.8395 L29.229,8.5485 L29.125,4.9895 L25.566,4.885 L24.24,1.57 L20.855,2.6865 L18.4825,0 L15.6915,2.233 L12.5515,0.5235 L10.702,3.5595 L7.143,3.036 L6.445,6.525 L2.9555,7.258 L3.4785,10.782 L0.408,12.666 L2.1175,15.806 L-0.0805,18.5975 L2.606,20.9355 L1.4545,24.32 L4.7695,25.646 L4.874,29.2045 L8.433,29.3095 L9.724,32.6245 L13.1085,31.508 L15.481,34.1945 L18.3075,31.9265 L21.4475,33.6365 L23.297,30.601 L26.8205,31.1245 L27.5185,27.635 L31.0425,26.937 L30.5195,23.413 L33.5545,21.529 L31.845,18.3885 L34.0795,15.5965 L31.427,13.224 Z" id="Shape" fill="#E4796B" sketch:type="MSShapeGroup"></path>
            <path d="M23.891,32.031 L21.8325,35.415 L18.344,33.531 L15.238,35.9735 L12.621,33.008 L8.853,34.299 L7.387,30.5655 L5.7475,30.531 L5.7475,30.5305 L0.13,45.15 L8.434,43.7545 L12.7605,50 L16.285,40.928 L19.111,49.0235 L23.6465,42.917 L31.916,44.5225 L27.6945,32.589 L23.891,32.031 Z" id="Shape" fill="#E4796B" sketch:type="MSShapeGroup"></path>
            <path d="M19.312,22.024 C19.312,22.7120034 20.1599915,23.056 21.856,23.056 L21.856,25 L11.632,25 L11.632,23.056 C13.6160099,23.056 14.608,22.7120034 14.608,22.024 L14.608,13.24 L11.416,13.24 L11.32,11.392 C13.5600112,11.3439998 15.1039958,10.3920093 15.952,8.536 L19.456,8.8 C19.4079998,9.23200216 19.3720001,9.59999848 19.348,9.904 C19.3239999,10.2080015 19.312,10.4959986 19.312,10.768 L19.312,22.024 Z" id="1" fill="#FFFFFF" sketch:type="MSShapeGroup"></path>
        </g>
    </g>
</svg>