<?xml version="1.0" encoding="UTF-8" standalone="no"?>
<svg width="20px" height="20px" viewBox="0 0 20 20" version="1.1" xmlns="http://www.w3.org/2000/svg" xmlns:xlink="http://www.w3.org/1999/xlink" xmlns:sketch="http://www.bohemiancoding.com/sketch/ns">
    <!-- Generator: Sketch Beta 3.1.1 (8761) - http://www.bohemiancoding.com/sketch -->
    <title>search_slim</title>
    <desc>Created with Sketch Beta.</desc>
    <defs></defs>
    <g id="Page-5" stroke="none" stroke-width="1" fill="none" fill-rule="evenodd" sketch:type="MSPage">
        <g id="search_slim" sketch:type="MSLayerGroup" fill="#3A988C">
            <path d="M12,16 C16.418278,16 20,12.418278 20,8 C20,3.581722 16.418278,0 12,0 C7.581722,0 4,3.581722 4,8 C4,12.418278 7.581722,16 12,16 Z M12,14.4 C15.5346224,14.4 18.4,11.5346224 18.4,8 C18.4,4.4653776 15.5346224,1.6 12,1.6 C8.4653776,1.6 5.6,4.4653776 5.6,8 C5.6,11.5346224 8.4653776,14.4 12,14.4 Z" id="Oval-2" sketch:type="MSShapeGroup"></path>
            <rect id="Rectangle-5" sketch:type="MSShapeGroup" transform="translate(4.000000, 16.000000) rotate(-45.000000) translate(-4.000000, -16.000000) " x="-0.8" y="15.2" width="9.6" height="1.6"></rect>
        </g>
    </g>
</svg>